<svg xmlns="http://www.w3.org/2000/svg" viewBox="0 0 560 560" width="560" height="560" role="img" aria-label="NO.3 cat tree placeholder"><rect width="560" height="560" fill="#F3EDE6"/><ellipse cx="280.0" cy="488" rx="150" ry="16" fill="#23282E" opacity=".07"/><rect x="155.0" y="466.0" width="250" height="20" rx="5" fill="#C98F63"/><rect x="155.0" y="482.0" width="250" height="4" rx="2" fill="#A9744B"/><rect x="269.5" y="337.3" width="15" height="108.7" rx="3" fill="#C7A469"/><line x1="269.5" y1="342.3" x2="284.5" y2="345.3" stroke="#B08F52" stroke-width="1.6" opacity=".8"/><line x1="269.5" y1="349.3" x2="284.5" y2="352.3" stroke="#B08F52" stroke-width="1.6" opacity=".8"/><line x1="269.5" y1="356.3" x2="284.5" y2="359.3" stroke="#B08F52" stroke-width="1.6" opacity=".8"/><line x1="269.5" y1="363.3" x2="284.5" y2="366.3" stroke="#B08F52" stroke-width="1.6" opacity=".8"/><line x1="269.5" y1="370.3" x2="284.5" y2="373.3" stroke="#B08F52" stroke-width="1.6" opacity=".8"/><line x1="269.5" y1="377.3" x2="284.5" y2="380.3" stroke="#B08F52" stroke-width="1.6" opacity=".8"/><line x1="269.5" y1="384.3" x2="284.5" y2="387.3" stroke="#B08F52" stroke-width="1.6" opacity=".8"/><line x1="269.5" y1="391.3" x2="284.5" y2="394.3" stroke="#B08F52" stroke-width="1.6" opacity=".8"/><line x1="269.5" y1="398.3" x2="284.5" y2="401.3" stroke="#B08F52" stroke-width="1.6" opacity=".8"/><line x1="269.5" y1="405.3" x2="284.5" y2="408.3" stroke="#B08F52" stroke-width="1.6" opacity=".8"/><line x1="269.5" y1="412.3" x2="284.5" y2="415.3" stroke="#B08F52" stroke-width="1.6" opacity=".8"/><line x1="269.5" y1="419.3" x2="284.5" y2="422.3" stroke="#B08F52" stroke-width="1.6" opacity=".8"/><line x1="269.5" y1="426.3" x2="284.5" y2="429.3" stroke="#B08F52" stroke-width="1.6" opacity=".8"/><line x1="269.5" y1="433.3" x2="284.5" y2="436.3" stroke="#B08F52" stroke-width="1.6" opacity=".8"/><line x1="269.5" y1="440.3" x2="284.5" y2="443.3" stroke="#B08F52" stroke-width="1.6" opacity=".8"/><rect x="158.0" y="446.0" width="128" height="13" rx="5" fill="#C98F63"/><rect x="158.0" y="455.0" width="128" height="4" rx="2" fill="#A9744B"/><rect x="281.5" y="218.7" width="15" height="108.7" rx="3" fill="#C7A469"/><line x1="281.5" y1="223.7" x2="296.5" y2="226.7" stroke="#B08F52" stroke-width="1.6" opacity=".8"/><line x1="281.5" y1="230.7" x2="296.5" y2="233.7" stroke="#B08F52" stroke-width="1.6" opacity=".8"/><line x1="281.5" y1="237.7" x2="296.5" y2="240.7" stroke="#B08F52" stroke-width="1.6" opacity=".8"/><line x1="281.5" y1="244.7" x2="296.5" y2="247.7" stroke="#B08F52" stroke-width="1.6" opacity=".8"/><line x1="281.5" y1="251.7" x2="296.5" y2="254.7" stroke="#B08F52" stroke-width="1.6" opacity=".8"/><line x1="281.5" y1="258.7" x2="296.5" y2="261.7" stroke="#B08F52" stroke-width="1.6" opacity=".8"/><line x1="281.5" y1="265.7" x2="296.5" y2="268.7" stroke="#B08F52" stroke-width="1.6" opacity=".8"/><line x1="281.5" y1="272.7" x2="296.5" y2="275.7" stroke="#B08F52" stroke-width="1.6" opacity=".8"/><line x1="281.5" y1="279.7" x2="296.5" y2="282.7" stroke="#B08F52" stroke-width="1.6" opacity=".8"/><line x1="281.5" y1="286.7" x2="296.5" y2="289.7" stroke="#B08F52" stroke-width="1.6" opacity=".8"/><line x1="281.5" y1="293.7" x2="296.5" y2="296.7" stroke="#B08F52" stroke-width="1.6" opacity=".8"/><line x1="281.5" y1="300.7" x2="296.5" y2="303.7" stroke="#B08F52" stroke-width="1.6" opacity=".8"/><line x1="281.5" y1="307.7" x2="296.5" y2="310.7" stroke="#B08F52" stroke-width="1.6" opacity=".8"/><line x1="281.5" y1="314.7" x2="296.5" y2="317.7" stroke="#B08F52" stroke-width="1.6" opacity=".8"/><line x1="281.5" y1="321.7" x2="296.5" y2="324.7" stroke="#B08F52" stroke-width="1.6" opacity=".8"/><rect x="264.0" y="265.3" width="136" height="62" rx="9" fill="#EADCCB" stroke="#A9744B" stroke-width="2"/><ellipse cx="332.0" cy="295.1" rx="32.6" ry="18.6" fill="#A9744B" opacity=".55"/><rect x="271.0" y="327.3" width="122" height="13" rx="5" fill="#C98F63"/><rect x="271.0" y="336.3" width="122" height="4" rx="2" fill="#A9744B"/><rect x="277.5" y="100.0" width="15" height="108.7" rx="3" fill="#C7A469"/><line x1="277.5" y1="105.0" x2="292.5" y2="108.0" stroke="#B08F52" stroke-width="1.6" opacity=".8"/><line x1="277.5" y1="112.0" x2="292.5" y2="115.0" stroke="#B08F52" stroke-width="1.6" opacity=".8"/><line x1="277.5" y1="119.0" x2="292.5" y2="122.0" stroke="#B08F52" stroke-width="1.6" opacity=".8"/><line x1="277.5" y1="126.0" x2="292.5" y2="129.0" stroke="#B08F52" stroke-width="1.6" opacity=".8"/><line x1="277.5" y1="133.0" x2="292.5" y2="136.0" stroke="#B08F52" stroke-width="1.6" opacity=".8"/><line x1="277.5" y1="140.0" x2="292.5" y2="143.0" stroke="#B08F52" stroke-width="1.6" opacity=".8"/><line x1="277.5" y1="147.0" x2="292.5" y2="150.0" stroke="#B08F52" stroke-width="1.6" opacity=".8"/><line x1="277.5" y1="154.0" x2="292.5" y2="157.0" stroke="#B08F52" stroke-width="1.6" opacity=".8"/><line x1="277.5" y1="161.0" x2="292.5" y2="164.0" stroke="#B08F52" stroke-width="1.6" opacity=".8"/><line x1="277.5" y1="168.0" x2="292.5" y2="171.0" stroke="#B08F52" stroke-width="1.6" opacity=".8"/><line x1="277.5" y1="175.0" x2="292.5" y2="178.0" stroke="#B08F52" stroke-width="1.6" opacity=".8"/><line x1="277.5" y1="182.0" x2="292.5" y2="185.0" stroke="#B08F52" stroke-width="1.6" opacity=".8"/><line x1="277.5" y1="189.0" x2="292.5" y2="192.0" stroke="#B08F52" stroke-width="1.6" opacity=".8"/><line x1="277.5" y1="196.0" x2="292.5" y2="199.0" stroke="#B08F52" stroke-width="1.6" opacity=".8"/><line x1="277.5" y1="203.0" x2="292.5" y2="206.0" stroke="#B08F52" stroke-width="1.6" opacity=".8"/><rect x="188.0" y="208.7" width="116" height="13" rx="5" fill="#C98F63"/><rect x="188.0" y="217.7" width="116" height="4" rx="2" fill="#A9744B"/><rect x="269.0" y="90.0" width="110" height="13" rx="5" fill="#C98F63"/><rect x="269.0" y="99.0" width="110" height="4" rx="2" fill="#A9744B"/><g transform="translate(324.0,84.0)" fill="#9AA3AC" opacity=".85"><ellipse cx="0" cy="-13" rx="26" ry="14"/><circle cx="19" cy="-27" r="12"/><path d="M11 -36 L13 -46 L21 -39 Z"/><path d="M24 -39 L31 -46 L31 -36 Z"/><path d="M-24 -18 q-16 -6 -12 -22" stroke="#9AA3AC" stroke-width="6" fill="none" stroke-linecap="round"/></g><rect x="22" y="22" width="96" height="42" rx="9" fill="#23282E"/><text x="36" y="51" font-family="Arial,Helvetica,sans-serif" font-size="21" font-weight="bold" fill="#fff">NO.3</text><rect x="452" y="22" width="86" height="42" rx="9" fill="#fff" stroke="#E7DFD6"/><text x="495" y="49" text-anchor="middle" font-family="Arial,Helvetica,sans-serif" font-size="14" font-weight="bold" fill="#B4653A">LARGE</text><text x="280.0" y="536" text-anchor="middle" font-family="Arial,Helvetica,sans-serif" font-size="15" fill="#9AA3AC">Replace with photo → assets/images/products/no3.jpg</text></svg>